<svg width="146" height="110" viewBox="0 0 146 110" fill="none" xmlns="http://www.w3.org/2000/svg">
<path fill-rule="evenodd" clip-rule="evenodd" d="M90.1884 34.2695V24.5971L72.7053 14.2216L55.2222 24.5971V34.2695L72.7053 23.894L90.1884 34.2695Z" fill="white"/>
<path fill-rule="evenodd" clip-rule="evenodd" d="M90.1884 47.9693V38.2968L72.7053 27.9213L55.2222 38.2968V47.9693L72.7053 37.5938L90.1884 47.9693Z" fill="#CE0E2D"/>
<path fill-rule="evenodd" clip-rule="evenodd" d="M90.1884 61.6622V51.9966L72.7053 41.6211L55.2222 51.9966V61.6622L72.7053 51.2867L90.1884 61.6622Z" fill="white"/>
<path fill-rule="evenodd" clip-rule="evenodd" d="M75.0382 59.9216C75.0382 61.2458 73.9877 62.3244 72.6985 62.3244C71.4092 62.3244 70.3656 61.2458 70.3656 59.9216C70.3656 58.5974 71.416 57.5189 72.6985 57.5189C73.9809 57.5189 75.0382 58.5905 75.0382 59.9216Z" fill="#CE0E2D"/>
<path fill-rule="evenodd" clip-rule="evenodd" d="M84.7416 94.386C84.7416 95.1505 84.1277 95.7717 83.3705 95.7717C82.6133 95.7717 81.9994 95.1505 81.9994 94.386C81.9994 93.6215 82.6133 93.0003 83.3705 93.0003C84.1277 93.0003 84.7416 93.6215 84.7416 94.386Z" fill="#EB2227"/>
<path fill-rule="evenodd" clip-rule="evenodd" d="M40.2869 88.1197L36.2623 95.7785H38.909L39.557 94.4747H44.5911L45.2392 95.7785H47.8586L43.8885 88.1197H40.2869ZM40.3755 92.8092L41.8421 89.8945H42.306L43.7726 92.8092H40.3755ZM131.679 88.0105C131.059 87.9286 129.933 87.8945 128.296 87.8945C126.659 87.8945 125.52 87.9354 124.906 88.0105C124.019 88.1334 123.48 88.5566 123.282 89.2938C123.139 89.7853 123.078 90.6249 123.078 91.7921C123.078 92.9593 123.139 93.874 123.282 94.3792C123.487 95.1095 124.019 95.5396 124.906 95.6624C125.52 95.7375 126.666 95.7785 128.31 95.7785C129.953 95.7785 131.059 95.7375 131.672 95.6624C132.552 95.5396 133.105 95.1095 133.303 94.3792C133.432 93.874 133.507 93.0208 133.507 91.8262C133.507 90.6317 133.432 89.7921 133.303 89.2938C133.105 88.5566 132.552 88.1334 131.672 88.0105M131.106 93.0481C131.059 93.246 130.97 93.3962 130.833 93.4986C130.69 93.6146 130.458 93.6897 130.158 93.717C129.858 93.7512 129.237 93.7716 128.316 93.7716C127.32 93.7716 126.659 93.7512 126.318 93.7102C125.854 93.6488 125.574 93.4235 125.479 93.0413C125.431 92.8228 125.41 92.4952 125.41 92.031C125.41 91.2597 125.458 90.7409 125.547 90.4883C125.629 90.2289 125.82 90.0583 126.106 89.9832C126.345 89.9218 127.088 89.8945 128.31 89.8945C129.374 89.8945 130.056 89.9081 130.329 89.9559C130.615 89.99 130.813 90.0924 130.929 90.2562C131.031 90.3859 131.093 90.5839 131.134 90.8433C131.168 91.089 131.188 91.4986 131.188 92.0515C131.188 92.5088 131.168 92.8433 131.12 93.0481M142.662 88.1197L142.716 93.8331H142.477L138.494 88.1197H134.435V95.7785H136.788L136.741 90.0651H136.993L140.997 95.7785H145.022V88.1197H142.662ZM36.0781 91.833C36.1395 91.5737 36.1736 91.1641 36.1736 90.6044C36.1736 89.9423 36.119 89.4644 36.0167 89.1436C35.9076 88.8364 35.7097 88.5907 35.4301 88.4201C35.1845 88.2699 34.9389 88.1743 34.6797 88.147C34.4205 88.1265 33.6292 88.1129 32.3332 88.1129H26.726V95.7717H29.0589V93.8262H32.3059C32.7834 93.8262 33.0972 93.8467 33.2472 93.8672C33.4041 93.8809 33.5133 93.9491 33.6019 94.031C33.6906 94.1334 33.7452 94.2631 33.7861 94.4542C33.8066 94.6385 33.8202 94.9389 33.8202 95.3553V95.7648H36.0986V95.0481C36.0986 94.3928 36.0781 93.9491 36.0508 93.7443C36.0167 93.5396 35.9348 93.3621 35.8121 93.2119C35.6074 92.9662 35.2527 92.8228 34.7752 92.7955C35.1845 92.7273 35.4915 92.6112 35.6961 92.4474C35.8803 92.2904 36.0099 92.0788 36.0781 91.8126M33.7861 91.4917C33.7452 91.6214 33.677 91.7102 33.5747 91.7784C33.4996 91.8331 33.4041 91.8604 33.3018 91.8604C33.1927 91.8672 32.8516 91.8808 32.2991 91.9013H29.0521V90.0173H32.2991C32.8243 90.0242 33.1381 90.0242 33.2541 90.0378C33.3632 90.0378 33.4587 90.0583 33.5406 90.1061C33.6565 90.1675 33.7247 90.2562 33.7861 90.3723C33.8202 90.4952 33.8475 90.6795 33.8475 90.9388C33.8475 91.1982 33.8202 91.3825 33.7861 91.4986M23.2199 95.7648H25.6619V88.1061H23.2199V95.7648ZM119.728 95.7648H122.163V88.1061H119.728V95.7648ZM15.7232 93.0822L13.4585 88.1061H9.26339V95.7648H11.5485L11.4871 90.0515H11.8964L14.7682 95.7648H16.6918L19.5636 90.0515H19.9388L19.8774 95.7648H22.1625V88.1061H17.9811L15.73 93.0822H15.7232ZM2.34654 92.7068H8.17197V91.0139H2.34654V89.9013H8.48575V88.0992H0.0750322V95.758H8.55397V93.9218H2.35336V92.7L2.34654 92.7068ZM50.0277 90.0583V95.7648H52.463V90.0583H55.8327V88.1061H46.6444V90.0583H50.0277ZM107.388 92.6931C107.388 93.1641 107.307 93.4645 107.177 93.601C107.075 93.7034 106.877 93.7716 106.577 93.7853C106.283 93.8262 105.69 93.8331 104.81 93.8331C104.094 93.8331 103.596 93.8262 103.316 93.7853C103.036 93.7512 102.825 93.6897 102.702 93.5873C102.566 93.4849 102.47 93.3211 102.416 93.0754C102.375 92.8365 102.354 92.4337 102.354 91.8467C102.354 91.2597 102.382 90.8569 102.429 90.5839C102.484 90.3109 102.579 90.1266 102.716 90.0173C102.825 89.9286 103.03 89.8603 103.302 89.8194C103.582 89.7921 104.08 89.7784 104.796 89.7784C105.513 89.7784 106.065 89.7921 106.427 89.8262C106.788 89.8672 107.006 89.9218 107.095 90.0037C107.163 90.0515 107.211 90.1197 107.225 90.2153C107.245 90.2972 107.259 90.4747 107.272 90.7204H109.592C109.599 90.4952 109.605 90.3723 109.605 90.345C109.605 89.717 109.53 89.2323 109.394 88.9115C109.244 88.5839 109.005 88.345 108.664 88.1675C108.398 88.0446 108.036 87.9695 107.593 87.9081C107.15 87.8671 106.44 87.8535 105.458 87.8535C103.493 87.8535 102.191 87.9218 101.549 88.0651C100.901 88.2084 100.465 88.5224 100.26 89.0139C100.165 89.2323 100.103 89.5327 100.062 89.9354C100.035 90.3177 100.015 90.9662 100.015 91.8535C100.015 92.7409 100.028 93.3962 100.062 93.7375C100.103 94.1744 100.199 94.502 100.328 94.7614C100.465 95.014 100.676 95.2051 100.949 95.3484C101.263 95.5123 101.727 95.6215 102.334 95.6761C102.948 95.7375 103.978 95.7648 105.424 95.7648C106.87 95.7648 107.77 95.6966 108.323 95.56C108.882 95.4235 109.264 95.1778 109.448 94.7955C109.626 94.4611 109.715 94.0037 109.715 93.4099C109.715 93.3075 109.715 93.0549 109.694 92.6863H107.382L107.388 92.6931ZM109.994 90.0583H113.371V95.7648H115.813V90.0583H119.183V88.1061H109.994V90.0583ZM96.8085 91.5122C96.8085 91.7307 96.7949 92.0174 96.7812 92.3587C96.754 92.6931 96.7267 92.9184 96.6994 93.0617C96.6653 93.2051 96.5971 93.3211 96.522 93.4099C96.3924 93.5532 96.1742 93.6488 95.8604 93.6829C95.5534 93.7307 95.0009 93.758 94.2096 93.758C93.2137 93.758 92.5657 93.717 92.2451 93.6283C91.9176 93.5259 91.7266 93.3279 91.6721 93.0344C91.6243 92.8296 91.597 92.3177 91.5902 91.5191V87.9968H89.2505V91.5191C89.2573 92.4064 89.2641 92.9935 89.2778 93.2324C89.2914 93.4781 89.3324 93.7512 89.3801 94.0583C89.5233 94.857 89.9872 95.3484 90.8058 95.5396C91.1673 95.6351 91.6039 95.6829 92.1086 95.717C92.6066 95.7443 93.316 95.7717 94.2369 95.7717C95.4511 95.7717 96.3447 95.7443 96.8768 95.6829C97.402 95.6283 97.8181 95.5123 98.1114 95.328C98.6298 95.0276 98.9368 94.5635 99.0323 93.9218C99.08 93.5396 99.121 92.7477 99.1414 91.5259V88.0037H96.8154V91.5259L96.8085 91.5122ZM58.6499 92.7H64.489V91.0071H58.6499V89.8945H64.8028V88.0924H56.3852V95.7512H64.8642V93.915H58.6567V92.6931L58.6499 92.7ZM73.8547 91.287C73.6091 91.1436 73.2817 91.0481 72.8656 90.9935C72.4495 90.9525 71.6241 90.9047 70.3963 90.8569C68.9297 90.816 68.1111 90.7682 67.9406 90.7272C67.7223 90.6658 67.6132 90.502 67.6132 90.2358C67.6132 89.9696 67.7291 89.7853 67.9406 89.717C68.1521 89.6556 68.7523 89.6214 69.7414 89.6214C70.56 89.6214 71.0852 89.6351 71.3376 89.6556C71.59 89.6624 71.7674 89.7033 71.8697 89.7716C71.9516 89.8126 71.9993 89.8876 72.0334 89.9627C72.0675 90.031 72.0812 90.1812 72.088 90.3928H74.339V90.0242C74.339 89.3416 74.2026 88.8433 73.9502 88.5497C73.6978 88.2562 73.2135 88.0583 72.5041 87.9627C72.0539 87.9013 71.2694 87.8671 70.1507 87.8671C68.5682 87.8671 67.5245 87.9081 66.9993 87.9832C66.4876 88.0583 66.1057 88.2358 65.8601 88.502C65.5327 88.8637 65.3689 89.4713 65.3689 90.3382C65.3689 91.1163 65.5122 91.6556 65.7987 91.99C65.9624 92.188 66.2012 92.3313 66.5013 92.4201C66.7946 92.502 67.2312 92.5566 67.7837 92.5771C68.0702 92.5839 68.6841 92.618 69.6391 92.659C70.5668 92.7 71.1603 92.7273 71.4536 92.7273C71.8219 92.7273 72.0743 92.775 72.1971 92.8501C72.3131 92.9252 72.3745 93.0686 72.3745 93.3075C72.3745 93.6215 72.2858 93.8126 72.1153 93.8877C72.0061 93.9286 71.8424 93.9628 71.6514 93.9696C71.4536 93.9696 70.867 93.9901 69.8915 93.9901C68.957 93.9764 68.4045 93.9696 68.2203 93.9559C68.0429 93.9423 67.9065 93.9082 67.7905 93.8262C67.6336 93.717 67.5586 93.4781 67.5654 93.1027H65.3212V93.4576C65.3212 94.0105 65.3758 94.4201 65.4849 94.6863C65.6009 94.9457 65.7919 95.1778 66.0784 95.3348C66.3512 95.4918 66.7605 95.601 67.313 95.6556C67.8587 95.717 68.7046 95.7443 69.8438 95.7443C71.2149 95.7443 72.1426 95.7239 72.6542 95.6761C73.118 95.6351 73.4795 95.5464 73.7387 95.4235C73.998 95.2938 74.2026 95.1095 74.3527 94.8433C74.5368 94.4952 74.6392 93.9628 74.6392 93.2324C74.6392 92.6931 74.5778 92.2699 74.4618 91.9696C74.3527 91.6761 74.148 91.4508 73.8752 91.2801M81.6242 88.0924L77.5928 95.7512H80.2463L81.7265 92.7819H81.7197L83.1795 89.8672H83.6433L85.1099 92.7819H85.0963L86.5765 95.7512H89.2027L85.2259 88.0924H81.6242Z" fill="white"/>
<path fill-rule="evenodd" clip-rule="evenodd" d="M35.7507 71.7032C35.7507 72.4677 35.1368 73.082 34.3796 73.082C33.6224 73.082 33.0085 72.4745 33.0085 71.7032C33.0085 70.9319 33.6156 70.3243 34.3796 70.3243C35.1436 70.3243 35.7507 70.9319 35.7507 71.7032Z" fill="#EB2227"/>
<path fill-rule="evenodd" clip-rule="evenodd" d="M139.176 74.7408C139.176 74.9592 139.162 75.2322 139.149 75.5872C139.121 75.908 139.094 76.1469 139.067 76.2834C139.019 76.4336 138.971 76.5497 138.889 76.6316C138.767 76.7613 138.542 76.8568 138.228 76.9114C137.921 76.9592 137.368 76.9797 136.57 76.9797C135.595 76.9797 134.94 76.9251 134.619 76.8363C134.428 76.7817 134.299 76.6862 134.189 76.577V78.8841C134.292 78.8978 134.394 78.8978 134.483 78.9046C134.981 78.9387 135.683 78.9592 136.597 78.9592C137.805 78.9592 138.678 78.9319 139.21 78.8637C139.742 78.8091 140.151 78.693 140.445 78.5292C140.956 78.222 141.256 77.7579 141.352 77.1162C141.406 76.7476 141.441 75.9421 141.468 74.7271V71.2322H139.176V74.7408Z" fill="white"/>
<path d="M137.702 71.0069H135.704V76.42H137.702V71.0069Z" fill="white"/>
<path fill-rule="evenodd" clip-rule="evenodd" d="M82.1836 76.9456C81.5901 76.9456 81.1604 76.9251 80.8807 76.8841C80.6078 76.8432 80.41 76.7749 80.2941 76.6793C80.1713 76.5838 80.0826 76.4063 80.0348 76.1742C79.9735 75.9353 79.953 75.5872 79.953 75.123C79.953 74.9455 79.953 74.7885 79.9666 74.6452H77.6815V74.966C77.6815 75.6554 77.6951 76.1674 77.7361 76.5155C77.7633 76.8568 77.8316 77.1776 77.9202 77.4643C78.1453 78.1333 78.6092 78.5497 79.3118 78.6998C79.6392 78.7817 80.0076 78.8295 80.3691 78.85C80.7511 78.8773 81.3582 78.891 82.204 78.891H94.0936V74.6452H91.8221V76.9456H82.1836Z" fill="white"/>
<path d="M97.6271 71.3482H95.6216V78.9661H97.6271V71.3482Z" fill="white"/>
<path fill-rule="evenodd" clip-rule="evenodd" d="M99.4211 79.2937C99.4211 79.7237 99.4075 80.0104 99.387 80.1538C99.3324 80.4336 99.1414 80.5633 98.8208 80.5633H98.5411V81.9422C98.739 81.9558 98.9573 81.9627 99.1687 81.9627C99.7758 81.9627 100.253 81.9012 100.553 81.792C100.867 81.6691 101.099 81.4644 101.242 81.1777C101.317 81.0139 101.365 80.8432 101.392 80.6589C101.42 80.4678 101.427 80.1128 101.427 79.5872V74.5087H99.4211V79.2937Z" fill="white"/>
<path fill-rule="evenodd" clip-rule="evenodd" d="M51.6922 76.577C51.6512 76.8227 51.583 77.007 51.4807 77.123C51.4261 77.1708 51.3579 77.2254 51.2761 77.2527C51.0237 77.3688 50.5803 77.4302 49.9254 77.4302C49.2706 77.4302 48.8204 77.3688 48.5748 77.2527C48.493 77.2186 48.4316 77.164 48.377 77.123C48.2679 77.007 48.1996 76.8227 48.1655 76.577C48.1655 76.4541 48.1519 76.3107 48.1519 76.1606C48.1519 75.7988 48.186 75.5326 48.261 75.3619C48.3292 75.1845 48.4384 75.0616 48.5885 74.9728H48.6021C48.7794 74.8978 49.0318 74.85 49.3661 74.8227C49.5366 74.8158 49.714 74.809 49.9254 74.809C50.1369 74.809 50.3279 74.809 50.4916 74.8227C50.8327 74.85 51.0851 74.8978 51.2624 74.9728H51.2761C51.4261 75.0616 51.5421 75.1776 51.6035 75.3619C51.6717 75.5326 51.7058 75.7988 51.7058 76.1606C51.7058 76.3176 51.7058 76.4541 51.6922 76.577ZM72.2995 74.7408C72.2995 74.9592 72.2995 75.2322 72.2722 75.5872C72.2585 75.908 72.2312 76.1469 72.1971 76.2834C72.1562 76.4336 72.0948 76.5497 72.013 76.6316C71.8902 76.7613 71.6651 76.8568 71.3513 76.9114C71.0443 76.9592 70.4986 76.9797 69.7073 76.9797C68.7182 76.9797 68.0702 76.9251 67.7496 76.8363C67.4222 76.7476 67.2312 76.5428 67.1766 76.2493C67.1357 76.0514 67.1084 75.5531 67.0948 74.7885V71.239H64.796V75.751C64.796 76.0718 64.7755 76.3039 64.7482 76.4268C64.7278 76.5497 64.6596 76.6452 64.5845 76.7271C64.3867 76.8978 57.4903 76.9865 56.6854 76.9865C56.1806 76.9865 54.7208 76.9456 53.7045 76.8773C53.7318 76.6384 53.7318 76.3722 53.7318 76.024C53.7318 75.3414 53.684 74.85 53.5953 74.536C53.4998 74.2288 53.3157 73.9762 53.0564 73.7851C52.9746 73.7305 52.8791 73.6759 52.7768 73.6281C52.7631 73.6213 52.7427 73.6145 52.7222 73.6076C52.6472 73.5667 52.5721 73.5462 52.4903 73.5189C52.4698 73.5189 52.4562 73.5189 52.4357 73.5053H52.4221C52.2924 73.4643 52.1424 73.4302 51.9923 73.396C51.5421 73.3141 50.86 73.2937 49.9527 73.2937H49.9323C49.025 73.2937 48.3429 73.3141 47.8927 73.396C47.7358 73.4302 47.5994 73.4575 47.4698 73.5053H47.4425C47.4425 73.5053 47.4152 73.5189 47.4015 73.5189C47.3197 73.5462 47.2378 73.5667 47.1696 73.6076C47.1492 73.6076 47.1287 73.6213 47.1082 73.6281C47.0059 73.6759 46.9172 73.7305 46.8354 73.7851C46.5693 73.9762 46.392 74.2288 46.2965 74.536C46.201 74.8568 46.1532 75.3483 46.1532 76.024C46.1532 76.3722 46.1669 76.6452 46.1737 76.8773C45.171 76.9387 37.5038 76.9865 36.999 76.9865C36.1736 76.9865 35.6756 76.8978 35.4846 76.7271C35.4233 76.6793 35.3823 76.6179 35.3482 76.5428V74.5019H33.3359V79.2869C33.3359 79.7169 33.3223 80.0036 33.3018 80.147C33.2472 80.4268 33.0699 80.5565 32.7356 80.5565H32.4628V81.9354C32.6674 81.949 32.8721 81.9558 33.0835 81.9558C33.6975 81.9558 34.1681 81.8876 34.4751 81.7852C34.7889 81.6623 35.014 81.4575 35.1572 81.1709C35.2391 81.007 35.2937 80.8364 35.3141 80.6521C35.3346 80.4609 35.3482 80.106 35.3482 79.5804V78.9046C35.7575 78.9387 36.2486 78.9592 36.8353 78.9592C38.1109 78.9592 45.2255 78.891 45.7985 78.7544C46.1532 78.6725 46.4329 78.5155 46.6307 78.2903C46.849 78.536 47.1423 78.6998 47.5175 78.7749C47.5721 78.7954 47.6335 78.8091 47.7017 78.8227C47.7426 78.8295 47.7767 78.8364 47.8176 78.8432C48.1792 78.9046 48.7453 78.9387 49.5025 78.9592H50.3961C51.1533 78.9387 51.7195 78.9046 52.0878 78.8432C52.1287 78.8432 52.156 78.8295 52.2106 78.8227C52.2652 78.8091 52.3334 78.7954 52.3948 78.7749C52.7631 78.693 53.0564 78.536 53.2679 78.2903C53.4725 78.5155 53.7522 78.6725 54.1069 78.7544C54.6799 78.8978 55.594 78.9592 56.8627 78.9592C57.9132 78.9592 65.062 78.9046 65.5327 78.8022C65.7169 78.7613 65.8806 78.6998 66.0306 78.6316C66.1261 78.6725 66.2353 78.6998 66.3512 78.734C66.7059 78.8159 67.1425 78.8773 67.6405 78.9114C68.1316 78.9456 68.8342 78.9661 69.7415 78.9661C70.9557 78.9661 71.8356 78.9387 72.3608 78.8705C72.8929 78.8159 73.309 78.6998 73.5955 78.536C74.1071 78.2288 74.4073 77.7647 74.5028 77.123C74.5573 76.7544 74.5914 75.949 74.6119 74.7339V71.239H72.3131V74.7339L72.2995 74.7408Z" fill="white"/>
<path fill-rule="evenodd" clip-rule="evenodd" d="M130.329 77.1981C130.117 77.3551 129.64 77.437 128.876 77.437C128.214 77.437 127.757 77.3756 127.505 77.2596C127.341 77.1776 127.225 77.0684 127.17 76.9183C127.109 76.7681 127.082 76.5019 127.082 76.1606C127.082 75.8193 127.116 75.5326 127.184 75.3619C127.252 75.1845 127.375 75.0411 127.539 74.966C127.771 74.8636 128.214 74.8158 128.876 74.8158C129.49 74.8158 129.926 74.8636 130.185 74.9797C130.356 75.0411 130.479 75.1776 130.533 75.3414C130.601 75.5053 130.642 75.7578 130.642 76.1128C130.642 76.6725 130.533 77.0411 130.322 77.1981M131.966 73.7783C131.707 73.594 131.352 73.4575 130.902 73.3892C130.458 73.3073 129.783 73.2868 128.869 73.2868C127.675 73.2868 126.843 73.3551 126.359 73.4984C125.874 73.6349 125.533 73.8943 125.329 74.2971C125.226 74.4814 125.158 74.7066 125.131 74.9251C125.097 75.1571 125.076 75.4984 125.076 75.949C125.076 76.3039 125.076 76.6111 125.103 76.8773C124.094 76.9387 107.525 76.9865 107.013 76.9865C106.195 76.9865 105.69 76.8978 105.485 76.7271C105.397 76.6452 105.342 76.5497 105.315 76.4268C105.287 76.3039 105.274 76.0787 105.274 75.751V71.239H102.975V75.7988C102.975 76.5155 103.009 77.0343 103.077 77.3824C103.146 77.7169 103.268 77.9968 103.466 78.2152C103.712 78.5019 104.073 78.6998 104.551 78.8022C105.021 78.9046 105.785 78.9661 106.843 78.9661C108.111 78.9661 124.128 78.8978 124.694 78.7544C125.056 78.6589 125.342 78.5155 125.54 78.2835C125.588 78.3381 125.629 78.379 125.683 78.42C125.942 78.6316 126.284 78.7817 126.713 78.8432C127.15 78.9114 127.859 78.9592 128.862 78.9592C129.994 78.9592 130.792 78.8978 131.284 78.7749C131.87 78.6384 132.252 78.3244 132.45 77.8193C132.525 77.6213 132.58 77.3961 132.607 77.1435C132.634 76.8909 132.641 76.5087 132.641 76.0172C132.641 75.3346 132.6 74.8431 132.505 74.5292C132.409 74.222 132.232 73.9694 131.966 73.7783Z" fill="white"/>
<path fill-rule="evenodd" clip-rule="evenodd" d="M14.1407 76.9456H4.50891C3.91545 76.9456 3.47889 76.9251 3.20603 76.8841C2.92636 76.8432 2.72854 76.7749 2.61939 76.6793C2.49661 76.5838 2.40793 76.4063 2.34654 76.1742C2.29879 75.9353 2.27833 75.5872 2.27833 75.123C2.27833 74.9455 2.27833 74.7885 2.27833 74.6452H0V74.966C0 75.6554 0.0204638 76.1674 0.0477492 76.5155C0.0886773 76.8568 0.15007 77.1776 0.245569 77.4643C0.470673 78.1333 0.934526 78.5497 1.63712 78.6998C1.95773 78.7817 2.31926 78.8295 2.69443 78.85C3.06278 78.8773 3.6767 78.891 4.52255 78.891H16.419V74.6452H14.1338V76.9456H14.1407Z" fill="white"/>
<path d="M31.5214 71.3482H29.5091V78.9661H31.5214V71.3482Z" fill="white"/>
<path d="M19.9388 71.3482H17.9333V78.9661H19.9388V71.3482Z" fill="white"/>
<path fill-rule="evenodd" clip-rule="evenodd" d="M26.2008 73.0411C25.9007 73.0001 25.2458 72.9728 24.2158 72.9728H21.3849V74.8841H24.2226C24.9252 74.8909 25.3208 74.9182 25.43 74.9524C25.5664 75.0138 25.6619 75.1025 25.7233 75.2322C25.7779 75.3619 25.8052 75.5599 25.8052 75.8261C25.8052 76.106 25.7847 76.2971 25.7369 76.4268C25.696 76.5496 25.621 76.6384 25.4982 76.7135C25.4095 76.7613 25.3072 76.7817 25.1912 76.8022C25.0753 76.809 24.7615 76.8159 24.2362 76.8159H21.3986V78.7203H24.2499C25.1435 78.7203 25.7574 78.6998 26.0848 78.6657C26.5487 78.6179 26.9034 78.5292 27.1762 78.379C27.4355 78.2493 27.6401 78.0445 27.7902 77.8056C28.0084 77.4165 28.1176 76.7544 28.1176 75.8124C28.1176 74.8705 27.9812 74.1332 27.7288 73.751C27.4627 73.3619 26.9511 73.123 26.2076 73.0274" fill="white"/>
<path fill-rule="evenodd" clip-rule="evenodd" d="M8.12422 71.7032C8.12422 72.4677 7.50348 73.082 6.74631 73.082C5.98914 73.082 5.37522 72.4745 5.37522 71.7032C5.37522 70.9319 5.98914 70.3243 6.74631 70.3243C7.50348 70.3243 8.12422 70.9319 8.12422 71.7032Z" fill="white"/>
<path fill-rule="evenodd" clip-rule="evenodd" d="M11.2416 71.7032C11.2416 72.4677 10.6277 73.082 9.87049 73.082C9.11332 73.082 8.4994 72.4745 8.4994 71.7032C8.4994 70.9319 9.11332 70.3243 9.87049 70.3243C10.6277 70.3243 11.2416 70.9319 11.2416 71.7032Z" fill="white"/>
<path fill-rule="evenodd" clip-rule="evenodd" d="M85.8193 71.7237C85.8193 72.4882 85.2054 73.1025 84.4414 73.1025C83.6775 73.1025 83.0772 72.4882 83.0772 71.7237C83.0772 70.9592 83.6911 70.3448 84.4414 70.3448C85.1918 70.3448 85.8193 70.9592 85.8193 71.7237Z" fill="white"/>
<path fill-rule="evenodd" clip-rule="evenodd" d="M88.9367 71.7237C88.9367 72.4882 88.3228 73.1025 87.5588 73.1025C86.7948 73.1025 86.1945 72.4882 86.1945 71.7237C86.1945 70.9592 86.8153 70.3448 87.5588 70.3448C88.3023 70.3448 88.9367 70.9592 88.9367 71.7237Z" fill="white"/>
<path d="M145.411 71.2732H142.989V78.8841H145.411V71.2732Z" fill="white"/>
</svg>
